# xmcd CD database file
#
# Track frame offsets:
#	150
#	16042
#	31255
#	45277
#	59630
#	75247
#	90152
#	104862
#	120495
#	135867
#	149790
#	163005
#	177920
#	191170
#	206002
#	221707
#	235147
#	249085
#	263545
#	278765
#	294512
#
# Disc length: 4109 seconds
#
# Revision: 3
# Processed by: cddbd v1.5.2PL0 Copyright (c) Steve Scherf et al.
# Submitted via: CDex 1.70beta2
#
DISCID=1f100b15
DTITLE=服部良一 - 僕の音楽人生 [CD1)
DYEAR=1988
DGENRE=JPop
TTITLE0=流線型ジャズ
TTITLE1=おしゃれ娘
TTITLE2=草津ジャズ
TTITLE3=月に踊る
TTITLE4=ビロードの月
TTITLE5=霧の十字路
TTITLE6=山寺の和尚さん
TTITLE7=別れのブルース
TTITLE8=泪のタンゴ
TTITLE9=私のトランペット
TTITLE10=雨のブルース
TTITLE11=バンジョーで唄えば
TTITLE12=一杯のコーヒーから
TTITLE13=チャイナ・タンゴ
TTITLE14=広東ブルース
TTITLE15=懐かしのボレロ
TTITLE16=鈴蘭物語
TTITLE17=蘭の花
TTITLE18=いとしのあの星
TTITLE19=小鳥売りの歌
TTITLE20=ラッパと娘
EXTD=YEAR: 1988
EXTT0=
EXTT1=
EXTT2=
EXTT3=
EXTT4=
EXTT5=
EXTT6=
EXTT7=
EXTT8=
EXTT9=
EXTT10=
EXTT11=
EXTT12=
EXTT13=
EXTT14=
EXTT15=
EXTT16=
EXTT17=
EXTT18=
EXTT19=
EXTT20=
PLAYORDER=
